<?xml version="1.0" encoding="utf-8"?>
<!-- created with bpmn-js / http://bpmn.io -->
<!DOCTYPE svg PUBLIC "-//W3C//DTD SVG 1.1//EN" "http://www.w3.org/Graphics/SVG/1.1/DTD/svg11.dtd">
<svg xmlns="http://www.w3.org/2000/svg" xmlns:xlink="http://www.w3.org/1999/xlink" width="745" height="520" viewBox="150 75 745 520" version="1.1"><defs><pattern id="djs-grid-pattern-20228" width="10" height="10" patternUnits="userSpaceOnUse"><circle cx="0.5" cy="0.5" r="0.5" style="fill: rgb(204, 204, 204);"/></pattern></defs><g class="djs-group"><g class="djs-element djs-shape" data-element-id="Participant_14jzfdw" style="display: block;" transform="matrix(1 0 0 1 220 280)"><g class="djs-visual"><rect x="0" y="0" width="670" height="310" rx="0" ry="0" style="stroke-linecap: round; stroke-linejoin: round; stroke: rgb(34, 36, 42); stroke-width: 1.5px; fill: white; fill-opacity: 0.95;"/><path style="fill: none; stroke-linecap: round; stroke-linejoin: round; stroke: rgb(34, 36, 42); stroke-width: 1.5px;" d="M30,0L30,310"/><text lineHeight="1.2" class="djs-label" style="font-family: Arial, sans-serif; font-size: 12px; font-weight: normal; fill: rgb(34, 36, 42);" transform="matrix(-1.83697e-16 -1 1 -1.83697e-16 0 310)"><tspan x="123.3125" y="18.6">participantB</tspan></text></g><rect x="-5" y="-5" rx="4" width="680" height="320" class="djs-outline" style="fill: none;"/><rect class="djs-hit djs-hit-no-move" x="0" y="0" width="670" height="310" style="fill: none; stroke-opacity: 0; stroke: white; stroke-width: 15px;"/><rect class="djs-hit djs-hit-click-stroke" x="0" y="0" width="670" height="310" style="fill: none; stroke-opacity: 0; stroke: white; stroke-width: 15px;"/><rect class="djs-hit djs-hit-all" x="0" y="0" width="30" height="310" style="fill: none; stroke-opacity: 0; stroke: white; stroke-width: 15px;"/></g><g class="djs-children"><g class="djs-group"><g class="djs-element djs-shape" data-element-id="Gateway_01u51r2" style="display: block;" transform="matrix(1 0 0 1 375 507)"><g class="djs-visual"><polygon points="25,0 50,25 25,50 0,25" style="stroke-linecap: round; stroke-linejoin: round; stroke: rgb(34, 36, 42); stroke-width: 2px; fill: white; fill-opacity: 0.95;"/><path d="m 23,10 0,12.5 -12.5,0 0,5 12.5,0 0,12.5 5,0 0,-12.5 12.5,0 0,-5 -12.5,0 0,-12.5 -5,0 z" style="fill: rgb(34, 36, 42); stroke-linecap: round; stroke-linejoin: round; stroke: rgb(34, 36, 42); stroke-width: 1px;"/></g><rect class="djs-hit djs-hit-all" x="0" y="0" width="50" height="50" style="fill: none; stroke-opacity: 0; stroke: white; stroke-width: 15px;"/><rect x="2" y="2" rx="4" width="46" height="46" class="djs-outline" style="transform-box: fill-box; transform: rotate(45deg); transform-origin: center center; fill: none;"/></g></g><g class="djs-group"><g class="djs-element djs-shape" data-element-id="Event_012fenu" style="display: block;" transform="matrix(1 0 0 1 382 442)"><g class="djs-visual"><circle cx="18" cy="18" r="18" style="stroke-linecap: round; stroke-linejoin: round; stroke: rgb(34, 36, 42); stroke-width: 1.5px; fill: white; fill-opacity: 0.95;"/><circle cx="18" cy="18" r="15" style="stroke-linecap: round; stroke-linejoin: round; stroke: rgb(34, 36, 42); stroke-width: 1.5px; fill: none;"/><path d="m 8.459999999999999,11.34 l 0,12.6 l 18.900000000000002,0 l 0,-12.6 z l 9.450000000000001,5.4 l 9.450000000000001,-5.4" style="fill: white; stroke-linecap: round; stroke-linejoin: round; stroke: rgb(34, 36, 42); stroke-width: 1px;"/></g><rect class="djs-hit djs-hit-all" x="0" y="0" width="36" height="36" style="fill: none; stroke-opacity: 0; stroke: white; stroke-width: 15px;"/><circle cx="18" cy="18" r="23" class="djs-outline" style="fill: none;"/></g></g><g class="djs-group"><g class="djs-element djs-shape" data-element-id="Event_1c4ug7p" style="display: block;" transform="matrix(1 0 0 1 270 514)"><g class="djs-visual"><circle cx="18" cy="18" r="18" style="stroke-linecap: round; stroke-linejoin: round; stroke: rgb(34, 36, 42); stroke-width: 2px; fill: white; fill-opacity: 0.95;"/></g><rect class="djs-hit djs-hit-all" x="0" y="0" width="36" height="36" style="fill: none; stroke-opacity: 0; stroke: white; stroke-width: 15px;"/><circle cx="18" cy="18" r="23" class="djs-outline" style="fill: none;"/></g></g><g class="djs-group"><g class="djs-element djs-shape" data-element-id="Gateway_0bd547m" style="display: block;" transform="matrix(1 0 0 1 525 435)"><g class="djs-visual"><polygon points="25,0 50,25 25,50 0,25" style="stroke-linecap: round; stroke-linejoin: round; stroke: rgb(34, 36, 42); stroke-width: 2px; fill: white; fill-opacity: 0.95;"/><path d="m 16,15 7.42857142857143,9.714285714285715 -7.42857142857143,9.714285714285715 3.428571428571429,0 5.714285714285715,-7.464228571428572 5.714285714285715,7.464228571428572 3.428571428571429,0 -7.42857142857143,-9.714285714285715 7.42857142857143,-9.714285714285715 -3.428571428571429,0 -5.714285714285715,7.464228571428572 -5.714285714285715,-7.464228571428572 -3.428571428571429,0 z" style="fill: rgb(34, 36, 42); stroke-linecap: round; stroke-linejoin: round; stroke: rgb(34, 36, 42); stroke-width: 1px;"/></g><rect class="djs-hit djs-hit-all" x="0" y="0" width="50" height="50" style="fill: none; stroke-opacity: 0; stroke: white; stroke-width: 15px;"/><rect x="2" y="2" rx="4" width="46" height="46" class="djs-outline" style="transform-box: fill-box; transform: rotate(45deg); transform-origin: center center; fill: none;"/></g></g><g class="djs-group"><g class="djs-element djs-shape" data-element-id="Activity_0tlgq0x" style="display: block;" transform="matrix(1 0 0 1 640 310)"><g class="djs-visual"><rect x="0" y="0" width="100" height="80" rx="10" ry="10" style="stroke-linecap: round; stroke-linejoin: round; stroke: rgb(34, 36, 42); stroke-width: 2px; fill: white; fill-opacity: 0.95;"/><text lineHeight="1.2" class="djs-label" style="font-family: Arial, sans-serif; font-size: 12px; font-weight: normal; fill: rgb(34, 36, 42);"><tspan x="37.9921875" y="43.599999999999994">actB</tspan></text></g><rect class="djs-hit djs-hit-all" x="0" y="0" width="100" height="80" style="fill: none; stroke-opacity: 0; stroke: white; stroke-width: 15px;"/><rect x="-5" y="-5" rx="14" width="110" height="90" class="djs-outline" style="fill: none;"/></g></g><g class="djs-group"><g class="djs-element djs-shape" data-element-id="Activity_19p60nm" style="display: block;" transform="matrix(1 0 0 1 640 420)"><g class="djs-visual"><rect x="0" y="0" width="100" height="80" rx="10" ry="10" style="stroke-linecap: round; stroke-linejoin: round; stroke: rgb(34, 36, 42); stroke-width: 2px; fill: white; fill-opacity: 0.95;"/><text lineHeight="1.2" class="djs-label" style="font-family: Arial, sans-serif; font-size: 12px; font-weight: normal; fill: rgb(34, 36, 42);"><tspan x="37.49609375" y="43.599999999999994">actC</tspan></text></g><rect class="djs-hit djs-hit-all" x="0" y="0" width="100" height="80" style="fill: none; stroke-opacity: 0; stroke: white; stroke-width: 15px;"/><rect x="-5" y="-5" rx="14" width="110" height="90" class="djs-outline" style="fill: none;"/></g></g><g class="djs-group"><g class="djs-element djs-shape" data-element-id="Gateway_1fuumzr" style="display: block;" transform="matrix(1 0 0 1 815 385)"><g class="djs-visual"><polygon points="25,0 50,25 25,50 0,25" style="stroke-linecap: round; stroke-linejoin: round; stroke: rgb(34, 36, 42); stroke-width: 2px; fill: white; fill-opacity: 0.95;"/><path d="m 16,15 7.42857142857143,9.714285714285715 -7.42857142857143,9.714285714285715 3.428571428571429,0 5.714285714285715,-7.464228571428572 5.714285714285715,7.464228571428572 3.428571428571429,0 -7.42857142857143,-9.714285714285715 7.42857142857143,-9.714285714285715 -3.428571428571429,0 -5.714285714285715,7.464228571428572 -5.714285714285715,-7.464228571428572 -3.428571428571429,0 z" style="fill: rgb(34, 36, 42); stroke-linecap: round; stroke-linejoin: round; stroke: rgb(34, 36, 42); stroke-width: 1px;"/></g><rect class="djs-hit djs-hit-all" x="0" y="0" width="50" height="50" style="fill: none; stroke-opacity: 0; stroke: white; stroke-width: 15px;"/><rect x="2" y="2" rx="4" width="46" height="46" class="djs-outline" style="transform-box: fill-box; transform: rotate(45deg); transform-origin: center center; fill: none;"/></g></g><g class="djs-group"><g class="djs-element djs-shape" data-element-id="Event_1lertmo" style="display: block;" transform="matrix(1 0 0 1 822 514)"><g class="djs-visual"><circle cx="18" cy="18" r="18" style="stroke-linecap: round; stroke-linejoin: round; stroke: rgb(34, 36, 42); stroke-width: 4px; fill: white; fill-opacity: 0.95;"/></g><rect class="djs-hit djs-hit-all" x="0" y="0" width="36" height="36" style="fill: none; stroke-opacity: 0; stroke: white; stroke-width: 15px;"/><circle cx="18" cy="18" r="24" class="djs-outline" style="fill: none;"/></g></g><g class="djs-group"><g class="djs-element djs-connection" data-element-id="Flow_0n4nlmn" style="display: block;"><g class="djs-visual"><defs><marker id="marker-7s584u444bny9ibkhygjykgis" viewBox="0 0 20 20" refX="11" refY="10" markerWidth="10" markerHeight="10" orient="auto"><path d="M 1 5 L 11 10 L 1 15 Z" style="stroke-linecap: round; stroke-linejoin: round; stroke: rgb(34, 36, 42); stroke-width: 1px; fill: rgb(34, 36, 42);"/></marker></defs><path data-corner-radius="5" style="fill: none; stroke-linecap: round; stroke-linejoin: round; stroke: rgb(34, 36, 42); stroke-width: 2px; marker-end: url('#marker-7s584u444bny9ibkhygjykgis');" d="M306,532L375,532"/></g><path d="M306,532L375,532" class="djs-hit djs-hit-stroke" style="fill: none; stroke-opacity: 0; stroke: white; stroke-width: 15px;"/><rect x="301" y="527" rx="4" width="79" height="10" class="djs-outline" style="fill: none;"/></g></g><g class="djs-group"><g class="djs-element djs-connection" data-element-id="Flow_1d19nzk" style="display: block;"><g class="djs-visual"><defs><marker id="marker-a3k71i6bt27hryoa5ju0gk875" viewBox="0 0 20 20" refX="11" refY="10" markerWidth="10" markerHeight="10" orient="auto"><path d="M 1 5 L 11 10 L 1 15 Z" style="stroke-linecap: round; stroke-linejoin: round; stroke: rgb(34, 36, 42); stroke-width: 1px; fill: rgb(34, 36, 42);"/></marker></defs><path data-corner-radius="5" style="fill: none; stroke-linecap: round; stroke-linejoin: round; stroke: rgb(34, 36, 42); stroke-width: 2px; marker-end: url('#marker-a3k71i6bt27hryoa5ju0gk875');" d="M400,478L400,507"/></g><path d="M400,478L400,507" class="djs-hit djs-hit-stroke" style="fill: none; stroke-opacity: 0; stroke: white; stroke-width: 15px;"/><rect x="395" y="473" rx="4" width="10" height="39" class="djs-outline" style="fill: none;"/></g></g><g class="djs-group"><g class="djs-element djs-connection" data-element-id="Flow_0zbozsj" style="display: block;"><g class="djs-visual"><defs><marker id="marker-e54gikio668q728pyqixll9xo" viewBox="0 0 20 20" refX="11" refY="10" markerWidth="10" markerHeight="10" orient="auto"><path d="M 1 5 L 11 10 L 1 15 Z" style="stroke-linecap: round; stroke-linejoin: round; stroke: rgb(34, 36, 42); stroke-width: 1px; fill: rgb(34, 36, 42);"/></marker></defs><path data-corner-radius="5" style="fill: none; stroke-linecap: round; stroke-linejoin: round; stroke: rgb(34, 36, 42); stroke-width: 2px; marker-end: url('#marker-e54gikio668q728pyqixll9xo');" d="M425,532L545,532C547.5,532,550,529.5,550,527L550,485"/></g><path d="M425,532L550,532L550,485" class="djs-hit djs-hit-stroke" style="fill: none; stroke-opacity: 0; stroke: white; stroke-width: 15px;"/><rect x="420" y="480" rx="4" width="135" height="57" class="djs-outline" style="fill: none;"/></g></g><g class="djs-group"><g class="djs-element djs-connection" data-element-id="Flow_0gfooxs" style="display: block;"><g class="djs-visual"><defs><marker id="marker-9co5we3ac1ka1p42s66f64nn2" viewBox="0 0 20 20" refX="11" refY="10" markerWidth="10" markerHeight="10" orient="auto"><path d="M 1 5 L 11 10 L 1 15 Z" style="stroke-linecap: round; stroke-linejoin: round; stroke: rgb(34, 36, 42); stroke-width: 1px; fill: rgb(34, 36, 42);"/></marker></defs><path data-corner-radius="5" style="fill: none; stroke-linecap: round; stroke-linejoin: round; stroke: rgb(34, 36, 42); stroke-width: 2px; marker-end: url('#marker-9co5we3ac1ka1p42s66f64nn2');" d="M550,435L550,355C550,352.5,552.5,350,555,350L640,350"/></g><path d="M550,435L550,350L640,350" class="djs-hit djs-hit-stroke" style="fill: none; stroke-opacity: 0; stroke: white; stroke-width: 15px;"/><rect x="545" y="345" rx="4" width="100" height="95" class="djs-outline" style="fill: none;"/></g></g><g class="djs-group"><g class="djs-element djs-connection" data-element-id="Flow_0z74rn3" style="display: block;"><g class="djs-visual"><defs><marker id="marker-4cy1ncmtdwoog1beqlhn89v12" viewBox="0 0 20 20" refX="11" refY="10" markerWidth="10" markerHeight="10" orient="auto"><path d="M 1 5 L 11 10 L 1 15 Z" style="stroke-linecap: round; stroke-linejoin: round; stroke: rgb(34, 36, 42); stroke-width: 1px; fill: rgb(34, 36, 42);"/></marker></defs><path data-corner-radius="5" style="fill: none; stroke-linecap: round; stroke-linejoin: round; stroke: rgb(34, 36, 42); stroke-width: 2px; marker-end: url('#marker-4cy1ncmtdwoog1beqlhn89v12');" d="M575,460L640,460"/></g><path d="M575,460L640,460" class="djs-hit djs-hit-stroke" style="fill: none; stroke-opacity: 0; stroke: white; stroke-width: 15px;"/><rect x="570" y="455" rx="4" width="75" height="10" class="djs-outline" style="fill: none;"/></g></g><g class="djs-group"><g class="djs-element djs-connection" data-element-id="Flow_1bl1r19" style="display: block;"><g class="djs-visual"><defs><marker id="marker-80lphwn1cftuqe5ax45wx1afw" viewBox="0 0 20 20" refX="11" refY="10" markerWidth="10" markerHeight="10" orient="auto"><path d="M 1 5 L 11 10 L 1 15 Z" style="stroke-linecap: round; stroke-linejoin: round; stroke: rgb(34, 36, 42); stroke-width: 1px; fill: rgb(34, 36, 42);"/></marker></defs><path data-corner-radius="5" style="fill: none; stroke-linecap: round; stroke-linejoin: round; stroke: rgb(34, 36, 42); stroke-width: 2px; marker-end: url('#marker-80lphwn1cftuqe5ax45wx1afw');" d="M740,350L835,350C837.5,350,840,352.5,840,355L840,385"/></g><path d="M740,350L840,350L840,385" class="djs-hit djs-hit-stroke" style="fill: none; stroke-opacity: 0; stroke: white; stroke-width: 15px;"/><rect x="735" y="345" rx="4" width="110" height="45" class="djs-outline" style="fill: none;"/></g></g><g class="djs-group"><g class="djs-element djs-connection" data-element-id="Flow_12lhbtr" style="display: block;"><g class="djs-visual"><defs><marker id="marker-bre24jef0bz83lpjidssw7grn" viewBox="0 0 20 20" refX="11" refY="10" markerWidth="10" markerHeight="10" orient="auto"><path d="M 1 5 L 11 10 L 1 15 Z" style="stroke-linecap: round; stroke-linejoin: round; stroke: rgb(34, 36, 42); stroke-width: 1px; fill: rgb(34, 36, 42);"/></marker></defs><path data-corner-radius="5" style="fill: none; stroke-linecap: round; stroke-linejoin: round; stroke: rgb(34, 36, 42); stroke-width: 2px; marker-end: url('#marker-bre24jef0bz83lpjidssw7grn');" d="M740,460L773,460C775.5,460,778,457.5,778,455L778,415C778,412.5,780.5,410,783,410L815,410"/></g><path d="M740,460L778,460L778,410L815,410" class="djs-hit djs-hit-stroke" style="fill: none; stroke-opacity: 0; stroke: white; stroke-width: 15px;"/><rect x="735" y="405" rx="4" width="85" height="60" class="djs-outline" style="fill: none;"/></g></g><g class="djs-group"><g class="djs-element djs-connection" data-element-id="Flow_057q4hh" style="display: block;"><g class="djs-visual"><defs><marker id="marker-3kguoycvbc4yv4dhupooipvss" viewBox="0 0 20 20" refX="11" refY="10" markerWidth="10" markerHeight="10" orient="auto"><path d="M 1 5 L 11 10 L 1 15 Z" style="stroke-linecap: round; stroke-linejoin: round; stroke: rgb(34, 36, 42); stroke-width: 1px; fill: rgb(34, 36, 42);"/></marker></defs><path data-corner-radius="5" style="fill: none; stroke-linecap: round; stroke-linejoin: round; stroke: rgb(34, 36, 42); stroke-width: 2px; marker-end: url('#marker-3kguoycvbc4yv4dhupooipvss');" d="M840,435L840,514"/></g><path d="M840,435L840,514" class="djs-hit djs-hit-stroke" style="fill: none; stroke-opacity: 0; stroke: white; stroke-width: 15px;"/><rect x="835" y="430" rx="4" width="10" height="89" class="djs-outline" style="fill: none;"/></g></g></g></g><g class="djs-group"><g class="djs-element djs-shape" data-element-id="Participant_1ez89b5" style="display: block;" transform="matrix(1 0 0 1 155 80)"><g class="djs-visual"><rect x="0" y="0" width="490" height="170" rx="0" ry="0" style="stroke-linecap: round; stroke-linejoin: round; stroke: rgb(34, 36, 42); stroke-width: 1.5px; fill: white; fill-opacity: 0.95;"/><path style="fill: none; stroke-linecap: round; stroke-linejoin: round; stroke: rgb(34, 36, 42); stroke-width: 1.5px;" d="M30,0L30,170"/><text lineHeight="1.2" class="djs-label" style="font-family: Arial, sans-serif; font-size: 12px; font-weight: normal; fill: rgb(34, 36, 42);" transform="matrix(-1.83697e-16 -1 1 -1.83697e-16 0 170)"><tspan x="52.8173828125" y="18.6">participantA</tspan></text></g><rect x="-5" y="-5" rx="4" width="500" height="180" class="djs-outline" style="fill: none;"/><rect class="djs-hit djs-hit-no-move" x="0" y="0" width="490" height="170" style="fill: none; stroke-opacity: 0; stroke: white; stroke-width: 15px;"/><rect class="djs-hit djs-hit-click-stroke" x="0" y="0" width="490" height="170" style="fill: none; stroke-opacity: 0; stroke: white; stroke-width: 15px;"/><rect class="djs-hit djs-hit-all" x="0" y="0" width="30" height="170" style="fill: none; stroke-opacity: 0; stroke: white; stroke-width: 15px;"/></g><g class="djs-children"><g class="djs-group"><g class="djs-element djs-shape" data-element-id="StartEvent_1yr15k3" style="display: block;" transform="matrix(1 0 0 1 205 122)"><g class="djs-visual"><circle cx="18" cy="18" r="18" style="stroke-linecap: round; stroke-linejoin: round; stroke: rgb(34, 36, 42); stroke-width: 2px; fill: white; fill-opacity: 0.95;"/></g><rect class="djs-hit djs-hit-all" x="0" y="0" width="36" height="36" style="fill: none; stroke-opacity: 0; stroke: white; stroke-width: 15px;"/><circle cx="18" cy="18" r="23" class="djs-outline" style="fill: none;"/></g></g><g class="djs-group"><g class="djs-element djs-shape" data-element-id="Activity_0bia3e9" style="display: block;" transform="matrix(1 0 0 1 305 100)"><g class="djs-visual"><rect x="0" y="0" width="100" height="80" rx="10" ry="10" style="stroke-linecap: round; stroke-linejoin: round; stroke: rgb(34, 36, 42); stroke-width: 2px; fill: white; fill-opacity: 0.95;"/><text lineHeight="1.2" class="djs-label" style="font-family: Arial, sans-serif; font-size: 12px; font-weight: normal; fill: rgb(34, 36, 42);"><tspan x="37.49609375" y="43.599999999999994">actA</tspan></text></g><rect class="djs-hit djs-hit-all" x="0" y="0" width="100" height="80" style="fill: none; stroke-opacity: 0; stroke: white; stroke-width: 15px;"/><rect x="-5" y="-5" rx="14" width="110" height="90" class="djs-outline" style="fill: none;"/></g></g><g class="djs-group"><g class="djs-element djs-shape" data-element-id="Gateway_0dajwmh" style="display: block;" transform="matrix(1 0 0 1 470 115)"><g class="djs-visual"><polygon points="25,0 50,25 25,50 0,25" style="stroke-linecap: round; stroke-linejoin: round; stroke: rgb(34, 36, 42); stroke-width: 2px; fill: white; fill-opacity: 0.95;"/><path d="m 23,10 0,12.5 -12.5,0 0,5 12.5,0 0,12.5 5,0 0,-12.5 12.5,0 0,-5 -12.5,0 0,-12.5 -5,0 z" style="fill: rgb(34, 36, 42); stroke-linecap: round; stroke-linejoin: round; stroke: rgb(34, 36, 42); stroke-width: 1px;"/></g><rect class="djs-hit djs-hit-all" x="0" y="0" width="50" height="50" style="fill: none; stroke-opacity: 0; stroke: white; stroke-width: 15px;"/><rect x="2" y="2" rx="4" width="46" height="46" class="djs-outline" style="transform-box: fill-box; transform: rotate(45deg); transform-origin: center center; fill: none;"/></g></g><g class="djs-group"><g class="djs-element djs-shape" data-element-id="Event_1qqeoa8" style="display: block;" transform="matrix(1 0 0 1 587 122)"><g class="djs-visual"><circle cx="18" cy="18" r="18" style="stroke-linecap: round; stroke-linejoin: round; stroke: rgb(34, 36, 42); stroke-width: 4px; fill: white; fill-opacity: 0.95;"/></g><rect class="djs-hit djs-hit-all" x="0" y="0" width="36" height="36" style="fill: none; stroke-opacity: 0; stroke: white; stroke-width: 15px;"/><circle cx="18" cy="18" r="24" class="djs-outline" style="fill: none;"/></g></g><g class="djs-group"><g class="djs-element djs-shape" data-element-id="Event_084r1x3" style="display: block;" transform="matrix(1 0 0 1 477 192)"><g class="djs-visual"><circle cx="18" cy="18" r="18" style="stroke-linecap: round; stroke-linejoin: round; stroke: rgb(34, 36, 42); stroke-width: 1.5px; fill: white; fill-opacity: 0.95;"/><circle cx="18" cy="18" r="15" style="stroke-linecap: round; stroke-linejoin: round; stroke: rgb(34, 36, 42); stroke-width: 1.5px; fill: none;"/><path d="m 8.459999999999999,11.34 l 0,12.6 l 18.900000000000002,0 l 0,-12.6 z l 9.450000000000001,5.4 l 9.450000000000001,-5.4" style="fill: rgb(34, 36, 42); stroke-linecap: round; stroke-linejoin: round; stroke: white; stroke-width: 1px;"/></g><rect class="djs-hit djs-hit-all" x="0" y="0" width="36" height="36" style="fill: none; stroke-opacity: 0; stroke: white; stroke-width: 15px;"/><circle cx="18" cy="18" r="23" class="djs-outline" style="fill: none;"/></g></g><g class="djs-group"><g class="djs-element djs-connection" data-element-id="Flow_17iodak" style="display: block;"><g class="djs-visual"><defs><marker id="marker-epibgbauxsw58onrvkx75fwjy" viewBox="0 0 20 20" refX="11" refY="10" markerWidth="10" markerHeight="10" orient="auto"><path d="M 1 5 L 11 10 L 1 15 Z" style="stroke-linecap: round; stroke-linejoin: round; stroke: rgb(34, 36, 42); stroke-width: 1px; fill: rgb(34, 36, 42);"/></marker></defs><path data-corner-radius="5" style="fill: none; stroke-linecap: round; stroke-linejoin: round; stroke: rgb(34, 36, 42); stroke-width: 2px; marker-end: url('#marker-epibgbauxsw58onrvkx75fwjy');" d="M241,140L305,140"/></g><path d="M241,140L305,140" class="djs-hit djs-hit-stroke" style="fill: none; stroke-opacity: 0; stroke: white; stroke-width: 15px;"/><rect x="236" y="135" rx="4" width="74" height="10" class="djs-outline" style="fill: none;"/></g></g><g class="djs-group"><g class="djs-element djs-connection" data-element-id="Flow_1896fqd" style="display: block;"><g class="djs-visual"><defs><marker id="marker-0i6lbqb1kkt40jz0zevlwmvet" viewBox="0 0 20 20" refX="11" refY="10" markerWidth="10" markerHeight="10" orient="auto"><path d="M 1 5 L 11 10 L 1 15 Z" style="stroke-linecap: round; stroke-linejoin: round; stroke: rgb(34, 36, 42); stroke-width: 1px; fill: rgb(34, 36, 42);"/></marker></defs><path data-corner-radius="5" style="fill: none; stroke-linecap: round; stroke-linejoin: round; stroke: rgb(34, 36, 42); stroke-width: 2px; marker-end: url('#marker-0i6lbqb1kkt40jz0zevlwmvet');" d="M405,140L470,140"/></g><path d="M405,140L470,140" class="djs-hit djs-hit-stroke" style="fill: none; stroke-opacity: 0; stroke: white; stroke-width: 15px;"/><rect x="400" y="135" rx="4" width="75" height="10" class="djs-outline" style="fill: none;"/></g></g><g class="djs-group"><g class="djs-element djs-connection" data-element-id="Flow_1myo1lg" style="display: block;"><g class="djs-visual"><defs><marker id="marker-3fvjppi5zrvgx6m3qlnc57a3h" viewBox="0 0 20 20" refX="11" refY="10" markerWidth="10" markerHeight="10" orient="auto"><path d="M 1 5 L 11 10 L 1 15 Z" style="stroke-linecap: round; stroke-linejoin: round; stroke: rgb(34, 36, 42); stroke-width: 1px; fill: rgb(34, 36, 42);"/></marker></defs><path data-corner-radius="5" style="fill: none; stroke-linecap: round; stroke-linejoin: round; stroke: rgb(34, 36, 42); stroke-width: 2px; marker-end: url('#marker-3fvjppi5zrvgx6m3qlnc57a3h');" d="M520,140L587,140"/></g><path d="M520,140L587,140" class="djs-hit djs-hit-stroke" style="fill: none; stroke-opacity: 0; stroke: white; stroke-width: 15px;"/><rect x="515" y="135" rx="4" width="77" height="10" class="djs-outline" style="fill: none;"/></g></g><g class="djs-group"><g class="djs-element djs-connection" data-element-id="Flow_1rb78cj" style="display: block;"><g class="djs-visual"><defs><marker id="marker-4rlqor9yxu3xdkokislzxjcj8" viewBox="0 0 20 20" refX="11" refY="10" markerWidth="10" markerHeight="10" orient="auto"><path d="M 1 5 L 11 10 L 1 15 Z" style="stroke-linecap: round; stroke-linejoin: round; stroke: rgb(34, 36, 42); stroke-width: 1px; fill: rgb(34, 36, 42);"/></marker></defs><path data-corner-radius="5" style="fill: none; stroke-linecap: round; stroke-linejoin: round; stroke: rgb(34, 36, 42); stroke-width: 2px; marker-end: url('#marker-4rlqor9yxu3xdkokislzxjcj8');" d="M495,165L495,192"/></g><path d="M495,165L495,192" class="djs-hit djs-hit-stroke" style="fill: none; stroke-opacity: 0; stroke: white; stroke-width: 15px;"/><rect x="490" y="160" rx="4" width="10" height="37" class="djs-outline" style="fill: none;"/></g></g></g></g><g class="djs-group"><g class="djs-element djs-connection" data-element-id="Flow_12p84jt" style="display: block;"><g class="djs-visual"><defs><marker id="marker-0znfid7kj6tqrtisxlx8ruqaz" viewBox="0 0 20 20" refX="8.5" refY="5" markerWidth="20" markerHeight="20" orient="auto"><path d="m 1 5 l 0 -3 l 7 3 l -7 3 z" style="stroke-linecap: round; stroke-linejoin: round; stroke: rgb(34, 36, 42); stroke-width: 1px; fill: white; stroke-dasharray: 10000, 1;"/></marker><marker id="marker-7r8flsaite2a1ywo0blf4x3jz" viewBox="0 0 20 20" refX="6" refY="6" markerWidth="20" markerHeight="20" orient="auto"><circle cx="6" cy="6" r="3.5" style="stroke-linecap: round; stroke-linejoin: round; stroke: rgb(34, 36, 42); stroke-width: 1px; fill: white; stroke-dasharray: 10000, 1;"/></marker></defs><path data-corner-radius="5" style="fill: none; stroke-linecap: round; stroke-linejoin: round; stroke: rgb(34, 36, 42); stroke-width: 1.5px; marker-end: url('#marker-0znfid7kj6tqrtisxlx8ruqaz'); marker-start: url('#marker-7r8flsaite2a1ywo0blf4x3jz'); stroke-dasharray: 10, 11;" d="M477,210L405,210C402.5,210,400,212.5,400,215L400,442"/></g><path d="M477,210L400,210L400,442" class="djs-hit djs-hit-stroke" style="fill: none; stroke-opacity: 0; stroke: white; stroke-width: 15px;"/><rect x="395" y="205" rx="4" width="87" height="242" class="djs-outline" style="fill: none;"/></g></g></svg>